{
  "accessors": [
    {
      "name": "pMesh1_1_0_positions",
      "componentType": 5126,
      "count": 3840,
      "min": [
        -1.0019203424453735,
        -0.9733264446258545,
        -1.7787829637527466
      ],
      "max": [
        1.6389518976211548,
        1.0770760774612427,
        1.499671459197998
      ],
      "type": "VEC3",
      "bufferView": 0,
      "byteOffset": 0
    },
    {
      "name": "pMesh1_1_0_normals",
      "componentType": 5126,
      "count": 3840,
      "min": [
        -0.9959690570831299,
        -0.9972794651985168,
        -0.9961655139923096
      ],
      "max": [
        0.9959690570831299,
        0.9972794651985168,
        0.9961655139923096
      ],
      "type": "VEC3",
      "bufferView": 1,
      "byteOffset": 0
    },
    {
      "name": "pMesh1_1_0_texcoords",
      "componentType": 5126,
      "count": 3840,
      "min": [
        0,
        0.002945000072941184
      ],
      "max": [
        1,
        0.9914050102233887
      ],
      "type": "VEC2",
      "bufferView": 2,
      "byteOffset": 0
    },
    {
      "name": "pMesh1_1_0_indices",
      "componentType": 5123,
      "count": 3840,
      "min": [
        0
      ],
      "max": [
        3839
      ],
      "type": "SCALAR",
      "bufferView": 3,
      "byteOffset": 0
    }
  ],
  "asset": {
    "generator": "obj2gltf",
    "version": "2.0"
  },
  "buffers": [
    {
      "name": "mesh",
      "byteLength": 887000,
      "uri": "data:application/octet-stream;base64,"
    }
  ],
  "bufferViews": [
    {
      "name": "bufferView_0",
      "buffer": 0,
      "byteLength": 46080,
      "byteOffset": 0,
      "byteStride": 12,
      "target": 34962
    },
    {
      "name": "bufferView_1",
      "buffer": 0,
      "byteLength": 46080,
      "byteOffset": 46080,
      "byteStride": 12,
      "target": 34962
    },
    {
      "name": "bufferView_2",
      "buffer": 0,
      "byteLength": 30720,
      "byteOffset": 92160,
      "byteStride": 8,
      "target": 34962
    },
    {
      "name": "bufferView_3",
      "buffer": 0,
      "byteLength": 7680,
      "byteOffset": 122880,
      "target": 34963
    },
    {
      "buffer": 0,
      "byteOffset": 130560,
      "byteLength": 497657
    },
    {
      "buffer": 0,
      "byteOffset": 628217,
      "byteLength": 842
    },
    {
      "buffer": 0,
      "byteOffset": 629059,
      "byteLength": 257940
    }
  ],
  "extensionsUsed": [
    "KHR_materials_pbrSpecularGlossiness"
  ],
  "extensionsRequired": [
    "KHR_materials_pbrSpecularGlossiness"
  ],
  "images": [
    {
      "name": "texture_kd",
      "mimeType": "image/png",
      "bufferView": 4
    },
    {
      "name": "texture_ks",
      "mimeType": "image/png",
      "bufferView": 5
    },
    {
      "name": "texture_n",
      "mimeType": "image/png",
      "bufferView": 6
    }
  ],
  "materials": [
    {
      "name": "defaultMat",
      "extensions": {
        "KHR_materials_pbrSpecularGlossiness": {
          "diffuseTexture": {
            "index": 0
          },
          "specularGlossinessTexture": {
            "index": 1
          },
          "diffuseFactor": [
            1,
            1,
            1,
            1
          ],
          "specularFactor": [
            1,
            1,
            1
          ],
          "glossinessFactor": 1
        }
      },
      "normalTexture": {
        "index": 2
      },
      "emissiveFactor": [
        0,
        0,
        0
      ],
      "alphaMode": "OPAQUE",
      "doubleSided": false
    }
  ],
  "meshes": [
    {
      "name": "pMesh1_1",
      "primitives": [
        {
          "attributes": {
            "POSITION": 0,
            "NORMAL": 1,
            "TEXCOORD_0": 2
          },
          "indices": 3,
          "material": 0,
          "mode": 4
        }
      ]
    }
  ],
  "nodes": [
    {
      "name": "pMesh1",
      "mesh": 0
    }
  ],
  "samplers": [
    {
      "wrapS": 10497,
      "wrapT": 10497
    }
  ],
  "scene": 0,
  "scenes": [
    {
      "nodes": [
        0
      ]
    }
  ],
  "textures": [
    {
      "name": "texture_kd",
      "sampler": 0,
      "source": 0
    },
    {
      "name": "texture_ks",
      "sampler": 0,
      "source": 1
    },
    {
      "name": "texture_n",
      "sampler": 0,
      "source": 2
    }
  ]
}
